<svg version="1" xmlns="http://www.w3.org/2000/svg" width="933.333" height="933.333" viewBox="0 0 700.000000 700.000000"><path d="M106 78.6c-7.6 2-12.9 5.4-18.8 11.9-17.1 18.7-11 48.6 12.3 60.1 5.4 2.6 7 2.9 16 2.9 9.1 0 10.6-.3 16.5-3.1 7.9-3.8 14.1-9.9 18.3-17.9 3-5.6 3.2-6.6 3.2-16.5 0-9.2-.3-11.2-2.6-16-5.3-11.2-15.7-19.4-27.7-21.9-6.8-1.4-10.4-1.3-17.2.5zM221 78.6c-10.6 2.9-19.4 10.5-24.8 21.4-2.4 4.9-2.7 6.6-2.7 15.5 0 9.3.2 10.5 3.2 16.6 3.9 8 11.1 15 19.1 18.7l5.7 2.7h374l5.7-2.8c7.3-3.7 15-11.4 18.5-18.6 2.5-5.1 2.8-6.6 2.8-16.6 0-10.1-.2-11.4-2.8-16.3-5.6-10.6-14.4-18-24.9-20.8-8.1-2.1-365.7-2-373.8.2zM106 232.6c-19.2 5.2-31.9 25.1-28 44.1 2.6 12.4 10.3 22.3 21.9 28l5.6 2.8h490l5.8-2.8c7.4-3.7 14.7-11 18.4-18.4 2.5-5.3 2.8-6.8 2.8-16.3 0-9.3-.3-11.2-2.7-16.2-5.1-10.9-15.6-19.2-27.6-21.7-3.8-.8-72.6-1.1-243-1-205.9 0-238.4.2-243.2 1.5zM110.9 386c-16.4 2.1-29.6 14.8-32.9 31.7-3.7 19 9.1 38.7 28.5 43.8 5.3 1.3 32.1 1.5 243.5 1.5 256.8 0 242.6.3 253.2-5.1 6-3 13.5-11.1 16.6-17.7 2.4-5 2.7-6.9 2.7-16.2 0-9.6-.3-11-2.9-16.5-5.8-11.7-16.8-19.6-30.1-21.5-8.1-1.1-469.6-1.2-478.6 0zM103.8 541.9c-18.7 6-30.2 26.4-25.4 45.1 3.2 12.2 10.4 21 21.6 26.4l6.5 3.1h488.1l6.7-3.4c8-4.1 14.8-11 18.5-18.9 2.4-5.1 2.7-6.9 2.7-16.2 0-9.8-.2-10.9-3.2-16.5-3.8-7.4-11.5-14.8-19.1-18.3l-5.7-2.7-242.5-.2c-232.3-.2-242.7-.1-248.2 1.6z"/></svg>