<?xml version="1.0" encoding="UTF-8" standalone="no"?><!DOCTYPE svg PUBLIC "-//W3C//DTD SVG 1.1//EN" "http://www.w3.org/Graphics/SVG/1.1/DTD/svg11.dtd"><svg width="100%" height="100%" viewBox="0 0 52 28" version="1.1" xmlns="http://www.w3.org/2000/svg" xmlns:xlink="http://www.w3.org/1999/xlink" xml:space="preserve" xmlns:serif="http://www.serif.com/" style="fill-rule:evenodd;clip-rule:evenodd;stroke-linejoin:round;stroke-miterlimit:2;"><path id="arrow" d="M28.737,7.918c-1.367,-1.367 -3.583,-1.367 -4.95,-0c-4.717,4.717 -14.89,14.89 -18.991,18.991c-0.468,0.468 -1.104,0.731 -1.766,0.731c-0.663,0 -1.298,-0.263 -1.766,-0.731c-0.001,-0.001 -0.001,-0.001 -0.002,-0.002c-0.976,-0.976 -0.976,-2.559 0,-3.535c4.177,-4.178 14.755,-14.755 20.727,-20.727c2.36,-2.36 6.186,-2.36 8.547,0c5.971,5.972 16.549,16.549 20.726,20.727c0.976,0.976 0.976,2.559 0,3.535c-0.976,0.976 -2.559,0.976 -3.535,0c-4.102,-4.101 -14.273,-14.273 -18.99,-18.989Z" style="fill:#fff;"/></svg>