<?xml version="1.0" encoding="UTF-8" standalone="no"?><!DOCTYPE svg PUBLIC "-//W3C//DTD SVG 1.1//EN" "http://www.w3.org/Graphics/SVG/1.1/DTD/svg11.dtd"><svg width="100%" height="100%" viewBox="0 0 38 37" version="1.1" xmlns="http://www.w3.org/2000/svg" xmlns:xlink="http://www.w3.org/1999/xlink" xml:space="preserve" xmlns:serif="http://www.serif.com/" style="fill-rule:evenodd;clip-rule:evenodd;stroke-linejoin:round;stroke-miterlimit:2;"><path id="close" d="M23.674,17.415c-0.299,0.3 -0.467,0.706 -0.467,1.129c-0,0.423 0.168,0.829 0.467,1.129c2.754,2.753 9.827,9.826 13.089,13.088c0.449,0.449 0.701,1.058 0.701,1.693c-0,0.635 -0.252,1.244 -0.701,1.693c-0.05,0.05 -0.1,0.1 -0.149,0.149c-0.45,0.449 -1.059,0.702 -1.694,0.702c-0.635,-0 -1.244,-0.253 -1.693,-0.702c-3.261,-3.261 -10.335,-10.335 -13.088,-13.088c-0.299,-0.299 -0.705,-0.467 -1.129,-0.467c-0.423,-0 -0.829,0.168 -1.128,0.467c-2.753,2.753 -9.827,9.827 -13.088,13.088c-0.449,0.449 -1.058,0.702 -1.694,0.702c-0.635,-0 -1.244,-0.253 -1.693,-0.702c-0.049,-0.049 -0.099,-0.099 -0.149,-0.149c-0.449,-0.449 -0.701,-1.058 -0.701,-1.693c-0,-0.635 0.252,-1.244 0.701,-1.693c3.262,-3.262 10.335,-10.335 13.088,-13.088c0.3,-0.3 0.468,-0.706 0.468,-1.129c-0,-0.423 -0.168,-0.829 -0.468,-1.129c-2.753,-2.753 -9.826,-9.826 -13.088,-13.088c-0.449,-0.449 -0.701,-1.058 -0.701,-1.693c-0,-0.635 0.252,-1.244 0.701,-1.693c0.05,-0.05 0.1,-0.099 0.149,-0.149c0.449,-0.449 1.058,-0.702 1.693,-0.702c0.636,0 1.245,0.253 1.694,0.702c3.261,3.261 10.335,10.335 13.088,13.088c0.299,0.299 0.705,0.467 1.128,0.467c0.424,0 0.83,-0.168 1.129,-0.467c2.753,-2.753 9.827,-9.827 13.088,-13.088c0.449,-0.449 1.058,-0.702 1.693,-0.702c0.635,0 1.244,0.253 1.694,0.702c0.049,0.05 0.099,0.099 0.149,0.149c0.449,0.449 0.701,1.058 0.701,1.693c-0,0.635 -0.252,1.244 -0.701,1.693c-3.262,3.262 -10.335,10.335 -13.089,13.088Z" style="fill:#fff;"/></svg>