<?xml version="1.0" encoding="UTF-8" standalone="no"?><!DOCTYPE svg PUBLIC "-//W3C//DTD SVG 1.1//EN" "http://www.w3.org/Graphics/SVG/1.1/DTD/svg11.dtd"><svg width="100%" height="100%" viewBox="0 0 46 50" version="1.1" xmlns="http://www.w3.org/2000/svg" xmlns:xlink="http://www.w3.org/1999/xlink" xml:space="preserve" xmlns:serif="http://www.serif.com/" style="fill-rule:evenodd;clip-rule:evenodd;stroke-linejoin:round;stroke-miterlimit:2;"><path id="downloading" d="M20.576,41.509l0,-38.964c0,-1.38 1.121,-2.5 2.5,-2.5c1.38,-0 2.5,1.12 2.5,2.5l0,38.892l15.726,-15.726c0.976,-0.976 2.56,-0.976 3.536,-0c0.976,0.975 0.976,2.559 -0,3.535l-19.94,19.94c-0.25,0.25 -0.54,0.436 -0.85,0.558c-0.923,0.424 -2.052,0.256 -2.812,-0.504l-19.994,-19.994c-0.976,-0.976 -0.976,-2.56 0,-3.535c0.976,-0.976 2.56,-0.976 3.536,-0l15.798,15.798Z" style="fill:#fff;"/></svg>