<?xml version="1.0" encoding="UTF-8" standalone="no"?><!DOCTYPE svg PUBLIC "-//W3C//DTD SVG 1.1//EN" "http://www.w3.org/Graphics/SVG/1.1/DTD/svg11.dtd"><svg width="100%" height="100%" viewBox="0 0 46 51" version="1.1" xmlns="http://www.w3.org/2000/svg" xmlns:xlink="http://www.w3.org/1999/xlink" xml:space="preserve" xmlns:serif="http://www.serif.com/" style="fill-rule:evenodd;clip-rule:evenodd;stroke-linejoin:round;stroke-miterlimit:2;"><path id="download" d="M45.51,47.941c0,-1.379 -1.12,-2.5 -2.5,-2.5l-40,0c-1.379,0 -2.5,1.121 -2.5,2.5c0,1.38 1.121,2.5 2.5,2.5l40,0c1.38,0 2.5,-1.12 2.5,-2.5Zm-25.424,-11.387c0.071,0.071 0.178,0.093 0.271,0.054c0.093,-0.038 0.153,-0.129 0.153,-0.229c0,-4.55 0,-33.438 0,-33.438c0,-1.379 1.121,-2.5 2.5,-2.5c1.38,0 2.5,1.121 2.5,2.5l0,33.365c0,0.1 0.061,0.191 0.154,0.229c0.093,0.039 0.2,0.018 0.271,-0.053c1.982,-1.983 10.235,-10.236 10.235,-10.236c0.976,-0.976 2.56,-0.976 3.536,-0c0.976,0.975 0.976,2.56 -0,3.535l-14.874,14.874c-0.25,0.25 -0.54,0.436 -0.85,0.558c-0.923,0.424 -2.052,0.256 -2.812,-0.504l-14.928,-14.928c-0.976,-0.975 -0.976,-2.56 0,-3.535c0.976,-0.976 2.56,-0.976 3.536,-0c-0,-0 8.318,8.318 10.308,10.308Z" style="fill:#fff;"/></svg>