<?xml version="1.0" encoding="UTF-8" standalone="no"?><!DOCTYPE svg PUBLIC "-//W3C//DTD SVG 1.1//EN" "http://www.w3.org/Graphics/SVG/1.1/DTD/svg11.dtd"><svg width="100%" height="100%" viewBox="0 0 63 51" version="1.1" xmlns="http://www.w3.org/2000/svg" xmlns:xlink="http://www.w3.org/1999/xlink" xml:space="preserve" xmlns:serif="http://www.serif.com/" style="fill-rule:evenodd;clip-rule:evenodd;stroke-linejoin:round;stroke-miterlimit:2;"><path id="open" d="M39.401,4.96c0.264,0 0.517,0.105 0.704,0.292c0.186,0.186 0.291,0.44 0.291,0.703c0,0.881 0,2.158 0,3.038c0,0.264 -0.105,0.517 -0.291,0.704c-0.187,0.187 -0.44,0.291 -0.704,0.291c-4.947,0 -26.659,0 -26.659,0c-4.163,0 -7.542,3.38 -7.542,7.543c-0,-0 -0,20.112 -0,20.112c-0,4.162 3.379,7.542 7.542,7.542c-0,-0 32.682,-0 32.682,-0c4.163,-0 7.542,-3.38 7.542,-7.542l0,-14.089c0,-0.55 0.446,-0.995 0.995,-0.995c0.881,-0 2.158,-0 3.038,-0c0.55,-0 0.995,0.445 0.995,0.995c0,3.362 0,14.089 0,14.089c0,6.938 -5.632,12.57 -12.57,12.57l-32.682,0c-6.938,0 -12.57,-5.632 -12.57,-12.57l-0,-20.112c-0,-6.938 5.632,-12.571 12.57,-12.571l26.659,0Zm22.246,-4.963c0.347,0 0.681,0.138 0.927,0.384c0.246,0.246 0.384,0.579 0.384,0.927l-0,12.14c-0,0.555 -0.45,1.005 -1.005,1.005c-0.872,-0 -2.13,-0 -3.002,-0c-0.267,-0 -0.522,-0.106 -0.711,-0.294c-0.188,-0.189 -0.294,-0.444 -0.294,-0.711c0,-1.514 0,-4.262 0,-4.802c0,-0.016 -0.009,-0.03 -0.024,-0.036c-0.014,-0.006 -0.031,-0.003 -0.042,0.009c-1.12,1.119 -16.116,16.116 -19.58,19.579c-0.188,0.189 -0.444,0.294 -0.71,0.294c-0.266,0 -0.522,-0.105 -0.71,-0.294c-0.617,-0.617 -1.506,-1.506 -2.123,-2.123c-0.189,-0.188 -0.295,-0.444 -0.295,-0.71c0,-0.267 0.106,-0.522 0.295,-0.711c3.463,-3.463 18.459,-18.459 19.579,-19.579c0.011,-0.011 0.015,-0.028 0.009,-0.042c-0.006,-0.015 -0.021,-0.024 -0.036,-0.024c-0.54,-0 -3.289,-0 -4.803,-0c-0.266,-0 -0.521,-0.106 -0.71,-0.295c-0.188,-0.188 -0.294,-0.443 -0.294,-0.71c0,-0.872 0,-2.13 0,-3.003c-0,-0.554 0.45,-1.004 1.004,-1.004c2.552,0 9.285,0 12.141,0Z" style="fill:#fff;"/></svg>