<?xml version="1.0" encoding="UTF-8" standalone="no"?><!DOCTYPE svg PUBLIC "-//W3C//DTD SVG 1.1//EN" "http://www.w3.org/Graphics/SVG/1.1/DTD/svg11.dtd"><svg width="100%" height="100%" viewBox="0 0 11 51" version="1.1" xmlns="http://www.w3.org/2000/svg" xmlns:xlink="http://www.w3.org/1999/xlink" xml:space="preserve" xmlns:serif="http://www.serif.com/" style="fill-rule:evenodd;clip-rule:evenodd;stroke-linejoin:round;stroke-miterlimit:2;"><path id="menu" d="M5.01,40.564c2.76,-0 5,2.24 5,5c0,2.759 -2.24,5 -5,5c-2.759,-0 -5,-2.241 -5,-5c0,-2.76 2.241,-5 5,-5Zm0,-20c2.76,-0 5,2.24 5,5c0,2.759 -2.24,5 -5,5c-2.759,-0 -5,-2.241 -5,-5c0,-2.76 2.241,-5 5,-5Zm0,-20c2.76,-0 5,2.24 5,5c0,2.759 -2.24,5 -5,5c-2.759,-0 -5,-2.241 -5,-5c0,-2.76 2.241,-5 5,-5Z" style="fill:#fff;"/></svg>