<?xml version="1.0" encoding="UTF-8" standalone="no"?><!DOCTYPE svg PUBLIC "-//W3C//DTD SVG 1.1//EN" "http://www.w3.org/Graphics/SVG/1.1/DTD/svg11.dtd"><svg width="100%" height="100%" viewBox="0 0 47 49" version="1.1" xmlns="http://www.w3.org/2000/svg" xmlns:xlink="http://www.w3.org/1999/xlink" xml:space="preserve" xmlns:serif="http://www.serif.com/" style="fill-rule:evenodd;clip-rule:evenodd;stroke-linejoin:round;stroke-miterlimit:2;"><path id="moon" d="M44.507,35.024c0.744,-0.191 1.529,0.096 1.975,0.721c0.446,0.626 0.462,1.461 0.04,2.103c-2.044,2.98 -4.769,5.562 -8.106,7.489c-11.949,6.899 -27.252,2.798 -34.151,-9.151c-6.898,-11.949 -2.798,-27.252 9.151,-34.151c1.055,-0.608 2.136,-1.132 3.235,-1.569c0.723,-0.289 1.549,-0.1 2.075,0.474c0.526,0.574 0.641,1.414 0.29,2.109c-3.318,6.54 -3.363,14.578 0.576,21.402c5.132,8.888 15.431,12.951 24.915,10.573Z" style="fill:#fff;"/></svg>