<?xml version="1.0" encoding="UTF-8" standalone="no"?><!DOCTYPE svg PUBLIC "-//W3C//DTD SVG 1.1//EN" "http://www.w3.org/Graphics/SVG/1.1/DTD/svg11.dtd"><svg width="100%" height="100%" viewBox="0 0 51 51" version="1.1" xmlns="http://www.w3.org/2000/svg" xmlns:xlink="http://www.w3.org/1999/xlink" xml:space="preserve" xmlns:serif="http://www.serif.com/" style="fill-rule:evenodd;clip-rule:evenodd;stroke-linejoin:round;stroke-miterlimit:2;"><path id="sun" d="M22.51,48.228c0,1.38 1.121,2.5 2.5,2.5c1.38,0 2.5,-1.12 2.5,-2.5l0,-7.07c0,-1.379 -1.12,-2.5 -2.5,-2.5c-1.379,0 -2.5,1.121 -2.5,2.5l0,7.07Zm-15.177,-8.358c-0.976,0.976 -0.976,2.56 -0,3.536c0.975,0.976 2.56,0.976 3.535,-0l4.999,-4.999c0.976,-0.976 0.976,-2.56 0,-3.536c-0.975,-0.975 -2.559,-0.975 -3.535,0l-4.999,4.999Zm31.82,3.536c0.975,0.976 2.559,0.976 3.535,-0c0.976,-0.976 0.976,-2.56 0,-3.536l-4.999,-4.999c-0.976,-0.975 -2.56,-0.975 -3.536,0c-0.975,0.976 -0.975,2.56 0,3.536l5,4.999Zm-14.143,-27.678c5.52,0 10,4.481 10,10c0,5.519 -4.48,10 -10,10c-5.519,0 -10,-4.481 -10,-10c0,-5.519 4.481,-10 10,-10Zm-22.5,7.5c-1.379,0 -2.5,1.12 -2.5,2.5c0,1.38 1.121,2.5 2.5,2.5l7.07,0c1.38,0 2.5,-1.12 2.5,-2.5c0,-1.38 -1.12,-2.5 -2.5,-2.5l-7.07,0Zm45,5c1.38,0 2.5,-1.12 2.5,-2.5c0,-1.38 -1.12,-2.5 -2.5,-2.5l-7.07,0c-1.379,0 -2.5,1.12 -2.5,2.5c0,1.38 1.121,2.5 2.5,2.5l7.07,0Zm-36.642,-20.177c-0.975,-0.976 -2.56,-0.976 -3.535,-0c-0.976,0.975 -0.976,2.559 -0,3.535l4.999,4.999c0.976,0.976 2.56,0.976 3.535,0c0.976,-0.975 0.976,-2.56 0,-3.535l-4.999,-4.999Zm31.82,3.535c0.976,-0.976 0.976,-2.56 0,-3.535c-0.976,-0.976 -2.56,-0.976 -3.535,-0l-5,4.999c-0.975,0.975 -0.975,2.56 0,3.535c0.976,0.976 2.56,0.976 3.536,0l4.999,-4.999Zm-15.178,-8.358c0,-1.38 -1.12,-2.5 -2.5,-2.5c-1.379,0 -2.5,1.12 -2.5,2.5l0,7.07c0,1.38 1.121,2.5 2.5,2.5c1.38,0 2.5,-1.12 2.5,-2.5l0,-7.07Z" style="fill:#fff;"/></svg>